<svg version="1" xmlns="http://www.w3.org/2000/svg" width="666.667" height="666.667" viewBox="0 0 500.000000 500.000000"><path d="M332.7 1.1c-19.5 1.6-37 6.5-54.3 15-12 5.8-13.9 7.6-13.9 13.1 0 3.1.6 4.5 2.8 6.4 4 3.4 8.2 3.1 17.2-1.6 19.7-10 37.7-14.3 60.5-14.3 29.3-.1 52.3 6.9 76.9 23.3 11.8 7.9 27.2 23.3 35.1 35.1 16.3 24.4 23.4 47.7 23.4 76.4 0 22.9-3.9 39.6-14 60-6.7 13.7-14.3 23.9-27.9 37.6L428 262.7v40.7l-11.8-11.6c-6.5-6.5-12.9-11.9-14.4-12.3-1.7-.4-6.2.5-13.7 2.9-16.6 5.4-28.4 6.9-47.6 6.3-13.5-.4-17.8-.9-27.5-3.5-34-8.9-61.8-28.9-80.8-58-24.4-37.4-28.2-87.7-9.6-128.1 4.5-9.7 4.5-14 .2-17.6-2.5-2.2-3.9-2.6-6.6-2.1-4.8.7-6.1 2.1-10.3 11.1-9.5 20.3-13.2 37.3-13.3 61.7-.1 11.7-.5 17.8-1.1 17.8-.6 0-5.3-1-10.5-2.2-13.2-3.1-46.8-3.3-60.5-.4C74.8 177 36.8 206.2 16 247.8c-17.1 34.1-20.1 74.7-8.4 111.7 3.7 11.8 13.2 30.7 20.5 40.9 3.5 5 10.5 13.2 15.6 18.3l9.2 9.3.3 32.9c.3 32.9.3 32.9 2.6 35.4 2.8 2.9 6.6 3.9 10.1 2.5 1.5-.5 11.7-10 22.7-21l20.2-20 11.3 2.3c16 3.3 44.3 3.4 59.7.1 17.2-3.7 35.6-11 38.6-15.4 3.2-4.6 1.3-10.8-4.1-13.3-3.5-1.7-3.7-1.6-13.7 2.3-19 7.5-32.1 10.2-50.3 10.2-13.1 0-23-1.2-35.3-4.5-5-1.2-10-2.1-11.3-1.8-1.2.3-8.8 7.1-16.9 15.2L72 467.5V420l-12.3-12.2c-16.4-16.4-26.1-31.2-33.1-50.6-9.5-26.4-9.5-60 0-86.4 16-44.5 54.7-77.3 100.8-85.5 19-3.3 42.8-1.7 61.5 4.2l7.6 2.5 2.9 9.5c7.6 24.7 24.8 51.1 44.5 68.2 8 6.9 22.5 16.9 30.2 20.8l4.6 2.4.6 6.8c2.2 22.7-.9 43.6-9.5 64.6-2.9 7.3-3.8 10.5-3.3 12.7 1.4 6.3 9.6 9.1 14.8 5 1.4-1.1 4-5.5 5.8-9.7 7.8-18.7 12.4-42.8 11.7-61.6-.1-5.3 0-9.7.3-9.7s2.8.7 5.6 1.5c12.9 3.8 21.7 4.9 40.8 4.9 19.9.1 28.2-1 44.3-5.6l7.3-2.1 17.7 17.6c11.1 11 18.7 17.8 20.5 18.2 1.5.4 4 .2 5.8-.5 5.6-2.4 5.9-4 5.9-35.6v-28.7l8.3-8.6c26.6-27.7 40.8-59 43.7-96.3 2.6-34.8-6.2-67.9-26.1-97.8-8.4-12.7-28.2-32.5-40.9-40.9-30.4-20.2-64.1-29-99.3-26z"/><path d="M239.9 50.9c-2.1 2.2-2.9 3.9-2.9 6.6 0 5.1 4.4 9.5 9.5 9.5 8.3 0 12.7-10.5 6.9-16.4-3.8-3.8-9.5-3.6-13.5.3zM291 109.2c-10.6 3.9-7.9 18.8 3.4 18.8 3.3 0 8.3-4.4 9.1-8 .6-2.8-1.3-8.2-3.5-9.5-2.5-1.5-6.7-2.2-9-1.3zM395.7 111c-6.7 5.3-2.3 17 6.4 17 3.4 0 7.6-2.8 8.9-5.9 2.6-6.5-1.9-13.1-9-13.1-2.2 0-4.8.8-6.3 2zM303.3 170c-9.1 3.7-5.6 19.9 7.1 32.6 20.2 20.1 51.2 16.8 67.7-7.3 4.1-5.9 7.2-14.8 6.4-18.3-1.5-6.9-10.2-9.8-14.9-5-1.3 1.4-3.1 4.5-4 6.9-4.1 10.6-13.7 17.5-24.5 17.4-7.1-.1-11.8-2-17.5-7.3-3.3-3-5.2-6-6.8-10.2-2.9-8.2-7.6-11.2-13.5-8.8zM95 277.7c-2.9 1.1-5.9 4.6-6.5 7.5-1.3 5.7 3.5 11.8 9.4 11.8 8.6 0 13-10.9 6.8-16.8-2.4-2.3-7.2-3.5-9.7-2.5zM202.5 277.9c-3.7 1.6-6 5.1-6 9.3 0 3.3.6 4.5 3.3 6.9 1.8 1.6 4.3 2.9 5.7 2.9 5.8 0 10.5-4.7 10.5-10.4 0-5.6-8.3-10.9-13.5-8.7zM146.7 339c-13.1 3.4-24.2 13.9-29.5 28.3-2.6 6.8-2.7 8.8-.7 12.6 3.2 6.3 11.8 6.2 14.7-.2 4.9-10.6 6.6-13.2 10.2-16.3 6.8-5.9 14.8-6.9 23.2-3 6.2 2.9 10.5 8 13.3 15.6 1.2 3.2 2.7 6.2 3.4 6.8 4.4 3.5 10.7 1.9 13.2-3.5 1.4-3 1.5-4.2.5-8.1-3.1-12.6-14.6-26-25.7-30.2-6.6-2.5-17-3.4-22.6-2zM246.9 408.9c-6.1 6.2-2.5 16.1 5.8 16.1 8.9-.1 13.5-10 7.4-16.1-4.1-4-9.1-4-13.2 0z"/></svg>